<?xml version="1.0" standalone="no"?>
<!DOCTYPE svg PUBLIC "-//W3C//DTD SVG 20010904//EN"
 "http://www.w3.org/TR/2001/REC-SVG-20010904/DTD/svg10.dtd">
<svg version="1.0" xmlns="http://www.w3.org/2000/svg"
 width="330.000000pt" height="1200.000000pt" viewBox="0 0 330.000000 1200.000000"
 preserveAspectRatio="xMidYMid meet">

<g transform="translate(0.000000,1200.000000) scale(0.100000,-0.100000)"
fill="#000000" stroke="none">
<path d="M1566 10710 c-9 -23 -65 -315 -68 -350 -1 -16 -5 -30 -8 -30 -3 0 -6
-24 -7 -53 -2 -30 -9 -72 -17 -94 -8 -23 -11 -46 -6 -54 5 -7 6 -18 2 -24 -7
-10 -11 -33 -15 -87 -1 -16 -5 -28 -8 -28 -3 0 -7 -26 -8 -57 -4 -131 -6 -153
-14 -153 -5 0 -6 -12 -3 -26 4 -15 3 -23 -3 -20 -11 7 -9 -13 3 -32 4 -7 3
-18 -2 -25 -5 -7 -8 -37 -7 -69 2 -43 -1 -55 -11 -51 -10 4 -11 -3 -3 -32 7
-25 7 -40 -1 -49 -5 -8 -8 -21 -4 -30 3 -9 2 -16 -3 -16 -9 0 -9 -158 1 -167
3 -4 -2 -15 -11 -26 -11 -13 -12 -17 -4 -12 11 6 13 4 8 -7 -3 -9 0 -21 6 -28
9 -10 8 -12 -5 -7 -21 7 -23 -3 -5 -22 9 -10 9 -15 0 -18 -7 -2 -9 -11 -6 -19
3 -8 0 -14 -6 -14 -7 0 -11 -6 -10 -12 5 -42 -2 -64 -21 -64 -18 0 -20 7 -20
70 0 38 -2 67 -5 65 -4 -5 -6 -191 -2 -252 2 -21 8 -30 27 -34 37 -10 538 -9
583 0 l37 8 0 192 c0 457 -110 983 -311 1486 -61 153 -66 161 -73 141z m-186
-1620 c0 -5 -2 -10 -4 -10 -3 0 -8 5 -11 10 -3 6 -1 10 4 10 6 0 11 -4 11 -10z"/>
<path d="M1772 3180 c-9 -12 -17 -24 -18 -28 0 -4 -5 -25 -12 -47 -21 -76 -26
-181 -25 -565 2 -517 11 -671 45 -830 23 -104 23 -105 55 -114 17 -5 36 5 85
47 35 29 144 115 243 191 99 76 183 145 187 154 4 10 7 29 7 44 1 19 13 37 41
59 l40 33 -2 370 -3 370 -100 70 c-55 38 -155 107 -222 153 l-123 84 0 -49 0
-49 171 -164 c94 -90 176 -167 182 -171 6 -4 8 -10 4 -14 -6 -7 -57 38 -193
171 -28 28 -101 99 -163 158 -62 60 -110 111 -107 114 3 4 1 12 -5 20 -17 20
-67 16 -87 -7z"/>
<path d="M1224 3154 c-23 -19 -51 -37 -63 -39 -28 -5 -94 -58 -121 -95 -11
-16 -26 -27 -33 -24 -7 2 -40 -19 -72 -48 -33 -29 -72 -60 -87 -67 -21 -11
-28 -22 -28 -45 0 -25 -10 -39 -50 -71 l-49 -40 0 -375 0 -375 270 -183 c149
-101 277 -186 284 -188 21 -8 30 240 27 736 -3 529 -13 842 -27 846 -5 2 -29
-13 -51 -32z"/>
<path d="M1530 1400 c-58 -3 -90 -7 -72 -8 l32 -2 0 -170 0 -170 103 1 c56 0
125 4 152 7 l50 7 5 173 5 172 -85 -2 c-47 -1 -132 -5 -190 -8z"/>
<path d="M1378 1393 c7 -3 16 -2 19 1 4 3 -2 6 -13 5 -11 0 -14 -3 -6 -6z"/>
</g>
</svg>
